<svg xmlns="http://www.w3.org/2000/svg" version="1.1" xmlns:xlink="http://www.w3.org/1999/xlink" xmlns:svgjs="http://svgjs.dev/svgjs" width="1500" height="477" viewBox="0 0 1500 477"><g transform="matrix(1,0,0,1,-0.9090909090909918,-1.3824780094752214)"><svg viewBox="0 0 396 126" data-background-color="#ffffff" preserveAspectRatio="xMidYMid meet" height="477" width="1500" xmlns="http://www.w3.org/2000/svg" xmlns:xlink="http://www.w3.org/1999/xlink"><g id="tight-bounds" transform="matrix(1,0,0,1,0.2400000000000091,0.36518287042741804)"><svg viewBox="0 0 395.52 125.26963425914518" height="125.26963425914518" width="395.52"><g><svg viewBox="0 0 625.121711131005 197.9894016" height="125.26963425914518" width="395.52"><g transform="matrix(1,0,0,1,229.601711131005,7.636397584666838)"><svg viewBox="0 0 395.52 182.71660643066633" height="182.71660643066633" width="395.52"><g id="textblocktransform"><svg viewBox="0 0 395.52 182.71660643066633" height="182.71660643066633" width="395.52" id="textblock"><g><svg viewBox="0 0 395.52 133.90734141126157" height="133.90734141126157" width="395.52"><g transform="matrix(1,0,0,1,0,0)"><svg width="395.52" viewBox="1.76 -34.42 102.75 34.79" height="133.90734141126157" data-palette-color="#4b91f1"><path d="M20.12-32.45L20.12-32.45Q20.12-32.32 19.95-31.54 19.78-30.76 19.59-29.97 19.41-29.17 19.34-29L19.34-29Q19.24-28.66 19.07-28.41 18.9-28.15 18.48-28.15L18.48-28.15Q18.21-28.15 17.9-28.27L17.9-28.27Q16.97-28.59 16.03-28.8 15.09-29 14.09-29L14.09-29Q12.87-29 11.66-28.66 10.45-28.32 9.64-27.49 8.84-26.66 8.84-25.2L8.84-25.2Q8.84-23.36 9.77-22.18 10.69-21 12.15-20.15 13.6-19.31 15.23-18.49 16.87-17.68 18.32-16.56 19.78-15.45 20.7-13.77 21.63-12.08 21.63-9.45L21.63-9.45Q21.63-5.83 19.92-3.69 18.21-1.54 15.43-0.59 12.65 0.37 9.45 0.37L9.45 0.37Q8.5 0.37 7.19 0.26 5.88 0.15 4.6-0.09 3.32-0.32 2.44-0.66L2.44-0.66Q2.15-0.78 1.95-0.95 1.76-1.12 1.76-1.49L1.76-1.49Q1.76-1.64 1.95-2.45 2.15-3.27 2.37-4.1 2.59-4.93 2.64-5.13L2.64-5.13Q2.76-5.47 2.92-5.69 3.08-5.91 3.49-5.91L3.49-5.91Q3.74-5.91 3.96-5.83L3.96-5.83Q5.15-5.49 6.38-5.25 7.62-5 8.86-5L8.86-5Q10.4-5 11.83-5.43 13.26-5.86 14.17-6.88 15.09-7.91 15.09-9.69L15.09-9.69Q15.09-11.72 14.14-12.95 13.18-14.18 11.69-15.03 10.21-15.87 8.53-16.64 6.86-17.41 5.37-18.43 3.88-19.46 2.93-21.09 1.98-22.73 1.98-25.34L1.98-25.34Q1.98-28.59 3.52-30.58 5.05-32.57 7.57-33.5 10.08-34.42 12.96-34.42L12.96-34.42Q14.4-34.42 16.28-34.16 18.16-33.89 19.48-33.3L19.48-33.3Q19.78-33.18 19.95-33 20.12-32.81 20.12-32.45ZM26.14-33.23L26.14-33.23Q26.14-34.23 27.15-34.23L27.15-34.23 31.37-34.23Q32.37-34.23 32.37-33.23L32.37-33.23Q32.37-29.2 32.35-25.17 32.32-21.14 32.32-17.11L32.32-17.11Q32.32-13.09 32.35-9.06 32.37-5.03 32.37-1L32.37-1Q32.37 0 31.37 0L31.37 0 27.15 0Q26.14 0 26.14-1L26.14-1Q26.14-5.03 26.17-9.06 26.19-13.09 26.19-17.11L26.19-17.11Q26.19-21.14 26.17-25.17 26.14-29.2 26.14-33.23ZM43.23 0L39.23 0Q38.23 0 38.23-1.03L38.23-1.03Q38.23-2.37 38.29-3.71 38.35-5.05 38.37-6.4L38.37-6.4Q38.45-9.23 38.47-12.05 38.5-14.87 38.5-17.68L38.5-17.68Q38.5-21.24 38.45-24.8 38.4-28.37 38.3-31.91L38.3-31.91 38.3-32.15Q38.3-32.35 38.36-33.03 38.42-33.72 38.81-33.72L38.81-33.72Q39.16-33.72 39.55-33.23 39.94-32.74 40.11-32.52L40.11-32.52Q43.87-27.42 47.36-22.08 50.85-16.75 54.51-11.57L54.51-11.57Q54.63-11.4 54.76-11.4L54.76-11.4Q54.88-11.4 55-11.57L55-11.57Q58.76-16.77 62.34-22.12 65.91-27.47 69.75-32.59L69.75-32.59Q69.92-32.81 70.32-33.29 70.72-33.76 71.04-33.76L71.04-33.76Q71.45-33.76 71.5-33.08 71.55-32.4 71.55-32.2L71.55-32.2 71.55-31.96Q71.45-28.39 71.41-24.82 71.36-21.24 71.36-17.68L71.36-17.68Q71.36-14.87 71.38-12.05 71.41-9.23 71.48-6.4L71.48-6.4Q71.53-5.05 71.58-3.71 71.63-2.37 71.63-1.03L71.63-1.03Q71.63 0 70.62 0L70.62 0 66.43 0Q65.89 0 65.68-0.24 65.47-0.49 65.42-0.98L65.42-0.98Q65.4-1.32 65.4-1.72 65.4-2.12 65.4-2.49L65.4-2.49 65.35-6.03Q65.3-8.69 65.28-11.35 65.25-14.01 65.25-16.67L65.25-16.67Q65.25-16.72 65.24-16.98 65.23-17.24 65.11-17.24L65.11-17.24Q65.01-17.24 64.89-17.05 64.77-16.87 64.72-16.82L64.72-16.82Q63.13-14.38 61.58-11.9 60.03-9.42 58.44-6.96L58.44-6.96Q57.81-5.96 57.17-4.93 56.54-3.91 55.85-2.93L55.85-2.93Q55.71-2.73 55.51-2.5 55.32-2.27 55.02-2.27L55.02-2.27Q54.76-2.27 54.55-2.48 54.34-2.69 54.19-2.88L54.19-2.88Q53.58-3.74 52.99-4.61 52.39-5.49 51.8-6.37L51.8-6.37Q50.09-8.86 48.4-11.39 46.7-13.92 44.94-16.38L44.94-16.38Q44.92-16.43 44.79-16.59 44.67-16.75 44.58-16.75L44.58-16.75Q44.45-16.75 44.43-16.5 44.4-16.26 44.4-16.21L44.4-16.21Q44.4-13.62 44.38-11.05 44.36-8.47 44.31-5.88L44.31-5.88 44.26-2.44Q44.26-2.1 44.27-1.71 44.28-1.32 44.23-0.98L44.23-0.98Q44.18-0.49 43.99-0.24 43.79 0 43.23 0L43.23 0ZM77.75-33.2L77.75-33.2Q77.75-34.23 78.75-34.23L78.75-34.23 89.71-34.23Q92.42-34.23 95.05-33.64 97.67-33.06 99.82-31.75 101.97-30.44 103.24-28.28 104.51-26.12 104.51-22.97L104.51-22.97Q104.51-22.09 104.36-21.18 104.22-20.26 103.95-19.41L103.95-19.41Q103.02-16.48 100.92-14.71 98.82-12.94 96.07-12.16 93.33-11.38 90.5-11.38L90.5-11.38 84.32-11.38Q84.03-11.38 84.03-11.08L84.03-11.08 83.95-0.98Q83.95 0 82.95 0L82.95 0 78.73 0Q77.73 0 77.73-1.03L77.73-1.03Q77.73-2.34 77.78-3.67 77.82-5 77.85-6.32L77.85-6.32Q77.92-11.89 77.92-17.5L77.92-17.5Q77.92-22.75 77.85-27.98L77.85-27.98Q77.82-29.27 77.79-30.59 77.75-31.91 77.75-33.2ZM84.05-17.29L84.05-17.29 90.57-17.29Q91.98-17.29 93.49-17.66 94.99-18.04 96.23-18.88 97.48-19.73 98.04-21.12L98.04-21.12Q98.19-21.48 98.31-21.95 98.43-22.41 98.43-22.8L98.43-22.8Q98.43-23.14 98.31-23.62 98.19-24.1 98.06-24.44L98.06-24.44Q97.5-25.83 96.32-26.68 95.13-27.54 93.68-27.94 92.23-28.34 90.84-28.34L90.84-28.34 84-28.34Q84.03-25.59 84.04-22.81 84.05-20.04 84.05-17.29Z" opacity="1" transform="matrix(1,0,0,1,0,0)" fill="#4b91f1" class="wordmark-text-0" data-fill-palette-color="primary" id="text-0"></path></svg></g></svg></g><g transform="matrix(1,0,0,1,75.54432,165.51965094226657)"><svg viewBox="0 0 244.43135999999998 17.19695548839976" height="17.19695548839976" width="244.43135999999998"><g transform="matrix(1,0,0,1,0,0)"><svg width="244.43135999999998" viewBox="1.76 -35.21 615.54 43.32" height="17.19695548839976" data-palette-color="#4b91f1"><path d="M20.12-32.45L20.12-32.45Q20.12-32.32 19.95-31.54 19.78-30.76 19.59-29.97 19.41-29.17 19.34-29L19.34-29Q19.24-28.66 19.07-28.41 18.9-28.15 18.48-28.15L18.48-28.15Q18.21-28.15 17.9-28.27L17.9-28.27Q16.97-28.59 16.03-28.8 15.09-29 14.09-29L14.09-29Q12.87-29 11.66-28.66 10.45-28.32 9.64-27.49 8.84-26.66 8.84-25.2L8.84-25.2Q8.84-23.36 9.77-22.18 10.69-21 12.15-20.15 13.6-19.31 15.23-18.49 16.87-17.68 18.32-16.56 19.78-15.45 20.7-13.77 21.63-12.08 21.63-9.45L21.63-9.45Q21.63-5.83 19.92-3.69 18.21-1.54 15.43-0.59 12.65 0.37 9.45 0.37L9.45 0.37Q8.5 0.37 7.19 0.26 5.88 0.15 4.6-0.09 3.32-0.32 2.44-0.66L2.44-0.66Q2.15-0.78 1.95-0.95 1.76-1.12 1.76-1.49L1.76-1.49Q1.76-1.64 1.95-2.45 2.15-3.27 2.37-4.1 2.59-4.93 2.64-5.13L2.64-5.13Q2.76-5.47 2.92-5.69 3.08-5.91 3.49-5.91L3.49-5.91Q3.74-5.91 3.96-5.83L3.96-5.83Q5.15-5.49 6.38-5.25 7.62-5 8.86-5L8.86-5Q10.4-5 11.83-5.43 13.26-5.86 14.17-6.88 15.09-7.91 15.09-9.69L15.09-9.69Q15.09-11.72 14.14-12.95 13.18-14.18 11.69-15.03 10.21-15.87 8.53-16.64 6.86-17.41 5.37-18.43 3.88-19.46 2.93-21.09 1.98-22.73 1.98-25.34L1.98-25.34Q1.98-28.59 3.52-30.58 5.05-32.57 7.57-33.5 10.08-34.42 12.96-34.42L12.96-34.42Q14.4-34.42 16.28-34.16 18.16-33.89 19.48-33.3L19.48-33.3Q19.78-33.18 19.95-33 20.12-32.81 20.12-32.45ZM25.58-30.47L25.58-30.47Q25.58-31.81 26.58-32.78 27.59-33.74 28.93-33.74L28.93-33.74Q30.3-33.74 31.33-32.75 32.37-31.76 32.37-30.37L32.37-30.37Q32.37-29.03 31.38-28.04 30.39-27.05 29.03-27.05L29.03-27.05Q27.63-27.05 26.61-28.06 25.58-29.08 25.58-30.47ZM25.95-15.75L25.95-15.75 25.95-21.14Q25.95-22.14 26.95-22.14L26.95-22.14 30.71-22.14Q31.71-22.14 31.71-21.14L31.71-21.14Q31.71-16.11 31.74-11.07 31.76-6.03 31.76-1L31.76-1Q31.76 0 30.76 0L30.76 0 26.9 0Q25.9 0 25.9-1L25.9-1Q25.9-4.69 25.93-8.37 25.95-12.06 25.95-15.75ZM37.96-22.14L37.96-22.14 41.28-22.14Q42.11-22.14 42.26-21.26L42.26-21.26Q42.3-21.07 42.35-20.48 42.4-19.9 42.49-19.38 42.57-18.87 42.72-18.87L42.72-18.87Q42.84-18.87 42.94-18.98 43.04-19.09 43.09-19.17L43.09-19.17Q44.7-21.09 46.78-21.91 48.87-22.73 51.34-22.73L51.34-22.73Q53.34-22.73 55.23-22 57.12-21.26 58.03-19.31L58.03-19.31Q58.08-19.24 58.12-19.12 58.17-18.99 58.3-18.99L58.3-18.99Q58.39-18.99 58.47-19.08 58.54-19.17 58.59-19.21L58.59-19.21Q60.1-20.87 62.1-21.79 64.11-22.71 66.35-22.71L66.35-22.71Q69.33-22.71 71.49-21.06 73.65-19.41 73.65-16.21L73.65-16.21Q73.65-13.65 73.7-11.07 73.75-8.5 73.8-5.93L73.8-5.93Q73.85-4.71 73.91-3.48 73.97-2.25 73.97-1.03L73.97-1.03Q73.97 0 72.97 0L72.97 0 69.16 0Q68.62 0 68.42-0.24 68.21-0.49 68.16-0.98L68.16-0.98Q68.06-2 68.09-3.06 68.11-4.13 68.06-5.15L68.06-5.15Q68.04-7.35 68-9.55 67.96-11.74 67.96-13.94L67.96-13.94Q67.96-15.65 67.15-16.61 66.33-17.58 64.57-17.58L64.57-17.58Q62.54-17.58 61.13-16.33 59.71-15.09 58.97-13.24 58.22-11.4 58.22-9.62L58.22-9.62Q58.22-7.47 58.25-5.32 58.27-3.17 58.27-1L58.27-1Q58.27 0 57.27 0L57.27 0 53.41 0Q52.41 0 52.41-1L52.41-1Q52.41-4.25 52.46-7.47 52.51-10.69 52.46-13.94L52.46-13.94Q52.44-15.58 51.64-16.58 50.85-17.58 49.12-17.58L49.12-17.58Q47.04-17.58 45.62-16.35 44.21-15.11 43.48-13.26 42.74-11.4 42.7-9.57L42.7-9.57Q42.67-8.08 42.65-6.59 42.62-5.1 42.57-3.59L42.57-3.59Q42.57-2.95 42.59-2.28 42.6-1.61 42.52-0.98L42.52-0.98Q42.48-0.49 42.27-0.24 42.06 0 41.52 0L41.52 0 37.69 0Q36.69 0 36.69-1.05L36.69-1.05Q36.69-2.32 36.75-3.58 36.81-4.83 36.84-6.1L36.84-6.1Q36.98-11.45 36.98-16.77L36.98-16.77Q36.98-17.77 36.93-18.97 36.88-20.17 36.96-21.14L36.96-21.14Q37.03-22.14 37.96-22.14ZM91.64 0.46L91.64 0.46Q89.79 0.46 88.09-0.12 86.39-0.71 84.95-1.93L84.95-1.93Q84.88-1.98 84.79-2.06 84.71-2.15 84.59-2.15L84.59-2.15Q84.47-2.15 84.44-1.97 84.42-1.78 84.42-1.71L84.42-1.71Q84.37-0.12 84.37 1.5 84.37 3.13 84.32 4.71L84.32 4.71Q84.32 5.3 84.33 5.92 84.34 6.54 84.29 7.13L84.29 7.13Q84.25 7.62 84.04 7.86 83.83 8.11 83.29 8.11L83.29 8.11 79.36 8.11Q78.39 8.11 78.39 7.08L78.39 7.08Q78.39 5.2 78.47 3.3 78.56 1.39 78.61-0.46L78.61-0.46Q78.7-4.44 78.75-8.41 78.8-12.38 78.8-16.36L78.8-16.36Q78.8-17.55 78.79-18.75 78.78-19.95 78.78-21.14L78.78-21.14Q78.78-22.14 79.78-22.14L79.78-22.14 82.93-22.14Q83.68-22.14 83.87-21.53 84.05-20.92 84.07-20.32 84.1-19.73 84.37-19.73L84.37-19.73Q84.47-19.73 84.64-19.85L84.64-19.85Q86.42-21.22 88.35-21.97 90.28-22.73 92.55-22.73L92.55-22.73Q95.99-22.73 98.33-21.12 100.68-19.51 101.87-16.82 103.07-14.14 103.07-10.94L103.07-10.94Q103.07-7.45 101.66-4.88 100.26-2.32 97.7-0.93 95.13 0.46 91.64 0.46ZM90.5-4.54L90.5-4.54Q92.35-4.54 93.88-5.4 95.4-6.25 96.32-7.73 97.23-9.2 97.23-11.06L97.23-11.06Q97.23-13.96 95.35-15.83 93.47-17.7 90.57-17.7L90.57-17.7Q88.49-17.7 86.88-16.65 85.27-15.6 84.54-13.65L84.54-13.65Q84.54-12.43 84.53-11.21 84.51-9.99 84.51-8.76L84.51-8.76Q84.51-8.64 84.67-8.25 84.83-7.86 84.88-7.74L84.88-7.74Q85.66-6.15 87.22-5.35 88.79-4.54 90.5-4.54ZM107.07-34.2L107.07-34.2Q107.07-35.21 108.07-35.21L108.07-35.21 111.93-35.21Q112.93-35.21 112.93-34.2L112.93-34.2Q112.93-30.05 112.91-25.9 112.88-21.75 112.88-17.6L112.88-17.6Q112.88-13.45 112.91-9.3 112.93-5.15 112.93-1L112.93-1Q112.93 0 111.93 0L111.93 0 108.07 0Q107.07 0 107.07-1L107.07-1Q107.07-5.15 107.09-9.3 107.12-13.45 107.12-17.6L107.12-17.6Q107.12-21.75 107.09-25.9 107.07-30.05 107.07-34.2ZM128.7 0.59L128.7 0.59Q125.13 0.59 122.49-0.83 119.84-2.25 118.37-4.86 116.91-7.47 116.91-11.06L116.91-11.06Q116.91-14.4 118.3-17.07 119.69-19.73 122.23-21.28 124.77-22.83 128.19-22.83L128.19-22.83Q132.41-22.83 134.81-20.46 137.22-18.09 138.07-14.16L138.07-14.16Q138.1-14.09 138.1-13.92L138.1-13.92Q138.1-13.55 137.91-13.37 137.73-13.18 137.44-13.06L137.44-13.06Q136.61-12.67 135.68-12.38 134.75-12.08 133.87-11.74L133.87-11.74Q131.31-10.79 128.72-9.88 126.13-8.96 123.6-7.93L123.6-7.93Q123.4-7.84 123.4-7.69L123.4-7.69Q123.4-7.62 123.45-7.52L123.45-7.52Q124.43-5.76 126.13-4.91 127.84-4.05 129.8-4.05L129.8-4.05Q131.34-4.05 132.67-4.54 134-5.03 135.29-5.76L135.29-5.76Q135.46-5.86 135.63-5.93 135.8-6.01 135.97-6.01L135.97-6.01Q136.32-6.01 136.5-5.8 136.68-5.59 136.8-5.32L136.8-5.32Q136.9-5.15 137.18-4.55 137.46-3.96 137.72-3.36 137.98-2.76 137.98-2.59L137.98-2.59Q137.98-2.32 137.83-2.15 137.68-1.98 137.49-1.83L137.49-1.83Q135.75-0.63 133.28-0.02 130.8 0.59 128.7 0.59ZM122.57-11.3L122.57-11.3Q125.04-12.16 127.5-13.01 129.97-13.87 132.41-14.72L132.41-14.72Q131.8-16.06 130.71-17.07 129.63-18.07 128.04-18.07L128.04-18.07Q126.18-18.07 124.96-17.07 123.74-16.06 123.16-14.51 122.57-12.96 122.57-11.3ZM160.14 0L156.13 0Q155.13 0 155.13-1.03L155.13-1.03Q155.13-2.37 155.19-3.71 155.26-5.05 155.28-6.4L155.28-6.4Q155.35-9.23 155.38-12.05 155.4-14.87 155.4-17.68L155.4-17.68Q155.4-21.24 155.35-24.8 155.3-28.37 155.21-31.91L155.21-31.91 155.21-32.15Q155.21-32.35 155.27-33.03 155.33-33.72 155.72-33.72L155.72-33.72Q156.06-33.72 156.45-33.23 156.84-32.74 157.01-32.52L157.01-32.52Q160.77-27.42 164.26-22.08 167.76-16.75 171.42-11.57L171.42-11.57Q171.54-11.4 171.66-11.4L171.66-11.4Q171.78-11.4 171.91-11.57L171.91-11.57Q175.67-16.77 179.24-22.12 182.82-27.47 186.65-32.59L186.65-32.59Q186.82-32.81 187.23-33.29 187.63-33.76 187.95-33.76L187.95-33.76Q188.36-33.76 188.41-33.08 188.46-32.4 188.46-32.2L188.46-32.2 188.46-31.96Q188.36-28.39 188.31-24.82 188.26-21.24 188.26-17.68L188.26-17.68Q188.26-14.87 188.29-12.05 188.31-9.23 188.39-6.4L188.39-6.4Q188.43-5.05 188.48-3.71 188.53-2.37 188.53-1.03L188.53-1.03Q188.53 0 187.53 0L187.53 0 183.33 0Q182.8 0 182.59-0.24 182.38-0.49 182.33-0.98L182.33-0.98Q182.31-1.32 182.31-1.72 182.31-2.12 182.31-2.49L182.31-2.49 182.26-6.03Q182.21-8.69 182.18-11.35 182.16-14.01 182.16-16.67L182.16-16.67Q182.16-16.72 182.15-16.98 182.14-17.24 182.01-17.24L182.01-17.24Q181.92-17.24 181.79-17.05 181.67-16.87 181.62-16.82L181.62-16.82Q180.04-14.38 178.49-11.9 176.94-9.42 175.35-6.96L175.35-6.96Q174.71-5.96 174.08-4.93 173.44-3.91 172.76-2.93L172.76-2.93Q172.61-2.73 172.42-2.5 172.22-2.27 171.93-2.27L171.93-2.27Q171.66-2.27 171.45-2.48 171.25-2.69 171.1-2.88L171.1-2.88Q170.49-3.74 169.89-4.61 169.29-5.49 168.71-6.37L168.71-6.37Q167-8.86 165.3-11.39 163.61-13.92 161.85-16.38L161.85-16.38Q161.82-16.43 161.7-16.59 161.58-16.75 161.48-16.75L161.48-16.75Q161.36-16.75 161.34-16.5 161.31-16.26 161.31-16.21L161.31-16.21Q161.31-13.62 161.29-11.05 161.26-8.47 161.21-5.88L161.21-5.88 161.16-2.44Q161.16-2.1 161.18-1.71 161.19-1.32 161.14-0.98L161.14-0.98Q161.09-0.49 160.9-0.24 160.7 0 160.14 0L160.14 0ZM194.15-34.23L199.42-34.23Q200.05-34.23 200.35-33.57L200.35-33.57Q200.54-33.15 200.69-32.68 200.83-32.2 201.01-31.76L201.01-31.76 202.32-28.15Q203.52-24.83 204.67-21.47 205.81-18.12 207.06-14.82L207.06-14.82Q207.08-14.75 207.17-14.59 207.26-14.43 207.35-14.43L207.35-14.43Q207.48-14.43 207.55-14.59 207.62-14.75 207.65-14.82L207.65-14.82Q208.01-15.87 208.35-16.94 208.7-18.02 209.04-19.07L209.04-19.07Q209.79-21.34 210.55-23.61 211.31-25.88 212.06-28.13L212.06-28.13 213.29-31.74Q213.43-32.18 213.58-32.65 213.73-33.13 213.9-33.54L213.9-33.54Q214.19-34.23 214.85-34.23L214.85-34.23 220-34.23Q220.37-34.23 220.73-34.09 221.1-33.96 221.1-33.5L221.1-33.5Q221.1-33.23 220.93-32.84L220.93-32.84Q219-28.2 217.11-23.55 215.21-18.9 213.36-14.21L213.36-14.21 209.65-4.88Q209.26-3.83 208.85-2.8 208.45-1.76 208.01-0.73L208.01-0.73Q207.91-0.51 207.67-0.05 207.43 0.42 207.08 0.42L207.08 0.42Q206.74 0.42 206.5-0.05 206.25-0.51 206.16-0.73L206.16-0.73Q205.72-1.76 205.33-2.8 204.94-3.83 204.52-4.88L204.52-4.88 201.23-13.18Q199.3-18.12 197.29-23.03 195.29-27.95 193.24-32.84L193.24-32.84Q193.07-33.23 193.07-33.52L193.07-33.52Q193.07-33.98 193.44-34.11 193.8-34.23 194.15-34.23L194.15-34.23ZM247.61-7.69L247.61-7.69Q247.95-7.69 248.13-7.46 248.32-7.23 248.46-6.96L248.46-6.96Q248.61-6.71 249.05-5.82 249.49-4.93 249.88-4.06 250.27-3.2 250.27-3L250.27-3Q250.27-2.64 249.86-2.29L249.86-2.29Q248.12-0.98 245.53-0.31 242.95 0.37 240.77 0.37L240.77 0.37Q235.65 0.37 231.97-1.95 228.3-4.27 226.33-8.23 224.37-12.18 224.37-17.11L224.37-17.11Q224.37-20.65 225.4-23.82 226.44-26.98 228.44-29.41 230.45-31.84 233.36-33.22 236.28-34.59 240.04-34.59L240.04-34.59Q242.26-34.59 244.78-33.98 247.29-33.37 249.15-32.15L249.15-32.15Q249.64-31.84 249.64-31.42L249.64-31.42Q249.64-31.3 249.4-30.71 249.17-30.13 248.85-29.38 248.54-28.64 248.26-28.03 247.98-27.42 247.88-27.22L247.88-27.22Q247.76-26.98 247.57-26.72 247.39-26.46 247.05-26.46L247.05-26.46Q246.83-26.46 246.64-26.57 246.46-26.68 246.27-26.78L246.27-26.78Q244.87-27.66 243.45-28.19 242.02-28.71 240.33-28.71L240.33-28.71Q238.06-28.71 236.28-27.7 234.5-26.68 233.27-25 232.03-23.32 231.4-21.26 230.76-19.21 230.76-17.16L230.76-17.16Q230.76-14.06 231.85-11.41 232.94-8.76 235.16-7.14 237.38-5.52 240.75-5.52L240.75-5.52Q242.46-5.52 243.91-5.98 245.36-6.45 246.78-7.35L246.78-7.35Q246.97-7.47 247.17-7.58 247.37-7.69 247.61-7.69ZM267.75-33.2L267.75-33.2Q267.75-34.23 268.75-34.23L268.75-34.23 279.71-34.23Q282.42-34.23 285.04-33.64 287.67-33.06 289.82-31.75 291.96-30.44 293.23-28.28 294.5-26.12 294.5-22.97L294.5-22.97Q294.5-22.09 294.36-21.18 294.21-20.26 293.94-19.41L293.94-19.41Q293.01-16.48 290.91-14.71 288.82-12.94 286.07-12.16 283.32-11.38 280.49-11.38L280.49-11.38 274.31-11.38Q274.02-11.38 274.02-11.08L274.02-11.08 273.95-0.98Q273.95 0 272.95 0L272.95 0 268.72 0Q267.72 0 267.72-1.03L267.72-1.03Q267.72-2.34 267.77-3.67 267.82-5 267.84-6.32L267.84-6.32Q267.92-11.89 267.92-17.5L267.92-17.5Q267.92-22.75 267.84-27.98L267.84-27.98Q267.82-29.27 267.78-30.59 267.75-31.91 267.75-33.2ZM274.04-17.29L274.04-17.29 280.56-17.29Q281.98-17.29 283.48-17.66 284.98-18.04 286.23-18.88 287.47-19.73 288.03-21.12L288.03-21.12Q288.18-21.48 288.3-21.95 288.42-22.41 288.42-22.8L288.42-22.8Q288.42-23.14 288.3-23.62 288.18-24.1 288.06-24.44L288.06-24.44Q287.5-25.83 286.31-26.68 285.13-27.54 283.68-27.94 282.22-28.34 280.83-28.34L280.83-28.34 274-28.34Q274.02-25.59 274.03-22.81 274.04-20.04 274.04-17.29ZM323.38-34.23L327.58-34.23Q328.58-34.23 328.58-33.2L328.58-33.2Q328.58-31.96 328.53-30.71 328.49-29.47 328.46-28.22L328.46-28.22Q328.41-25.61 328.39-22.97 328.36-20.34 328.36-17.72L328.36-17.72Q328.36-14.92 328.39-12.08 328.41-9.25 328.46-6.42L328.46-6.42Q328.51-5.08 328.56-3.72 328.61-2.37 328.61-1.03L328.61-1.03Q328.61 0 327.61 0L327.61 0 323.41 0Q322.87 0 322.68-0.24 322.48-0.49 322.41-0.98L322.41-0.98Q322.36-1.42 322.35-2.21 322.33-3 322.35-3.83 322.36-4.66 322.36-5.18L322.36-5.18Q322.28-9.57 322.28-13.96L322.28-13.96Q322.28-14.26 321.97-14.26L321.97-14.26 305.56-14.26Q305.27-14.26 305.27-13.96L305.27-13.96Q305.27-9.57 305.19-5.18L305.19-5.18Q305.19-4.66 305.21-3.83 305.22-3 305.22-2.21 305.22-1.42 305.15-0.98L305.15-0.98Q305.07-0.49 304.89-0.24 304.71 0 304.14 0L304.14 0 299.92 0Q298.92 0 298.92-1.03L298.92-1.03Q298.92-2.37 298.98-3.72 299.04-5.08 299.07-6.42L299.07-6.42Q299.12-9.25 299.14-12.08 299.16-14.92 299.16-17.72L299.16-17.72Q299.16-20.34 299.14-22.97 299.12-25.61 299.07-28.22L299.07-28.22Q299.04-29.47 298.99-30.71 298.94-31.96 298.94-33.2L298.94-33.2Q298.94-34.23 299.95-34.23L299.95-34.23 304.17-34.23Q304.73-34.23 304.91-33.98 305.1-33.74 305.17-33.25L305.17-33.25Q305.27-32.59 305.23-31.24 305.19-29.88 305.22-29.1L305.22-29.1Q305.24-26.93 305.26-24.74 305.27-22.56 305.27-20.39L305.27-20.39Q305.27-20.09 305.59-20.09L305.59-20.09 321.97-20.09Q322.28-20.09 322.28-20.39L322.28-20.39Q322.28-22.56 322.3-24.74 322.31-26.93 322.33-29.1L322.33-29.1Q322.36-29.88 322.32-31.24 322.28-32.59 322.38-33.25L322.38-33.25Q322.46-33.74 322.65-33.98 322.85-34.23 323.38-34.23L323.38-34.23ZM334.73-33.2L334.73-33.2Q334.73-34.23 335.73-34.23L335.73-34.23 346.7-34.23Q349.41-34.23 352.03-33.64 354.66-33.06 356.8-31.75 358.95-30.44 360.22-28.28 361.49-26.12 361.49-22.97L361.49-22.97Q361.49-22.09 361.34-21.18 361.2-20.26 360.93-19.41L360.93-19.41Q360-16.48 357.9-14.71 355.8-12.94 353.06-12.16 350.31-11.38 347.48-11.38L347.48-11.38 341.3-11.38Q341.01-11.38 341.01-11.08L341.01-11.08 340.93-0.98Q340.93 0 339.93 0L339.93 0 335.71 0Q334.71 0 334.71-1.03L334.71-1.03Q334.71-2.34 334.76-3.67 334.81-5 334.83-6.32L334.83-6.32Q334.9-11.89 334.9-17.5L334.9-17.5Q334.9-22.75 334.83-27.98L334.83-27.98Q334.81-29.27 334.77-30.59 334.73-31.91 334.73-33.2ZM341.03-17.29L341.03-17.29 347.55-17.29Q348.97-17.29 350.47-17.66 351.97-18.04 353.21-18.88 354.46-19.73 355.02-21.12L355.02-21.12Q355.17-21.48 355.29-21.95 355.41-22.41 355.41-22.8L355.41-22.8Q355.41-23.14 355.29-23.62 355.17-24.1 355.05-24.44L355.05-24.44Q354.48-25.83 353.3-26.68 352.12-27.54 350.66-27.94 349.21-28.34 347.82-28.34L347.82-28.34 340.98-28.34Q341.01-25.59 341.02-22.81 341.03-20.04 341.03-17.29ZM378.43-33.2L378.43-33.2Q378.43-34.23 379.43-34.23L379.43-34.23 399.52-34.23Q400.52-34.23 400.52-33.2L400.52-33.2Q400.52-32.28 400.54-31.26 400.55-30.25 400.48-29.32L400.48-29.32Q400.4-28.34 399.47-28.34L399.47-28.34 384.95-28.34Q384.65-28.34 384.65-28.05L384.65-28.05Q384.65-26.03 384.67-23.99 384.68-21.95 384.68-19.92L384.68-19.92Q384.68-19.63 384.97-19.63L384.97-19.63 397.35-19.63Q398.35-19.63 398.35-18.63L398.35-18.63 398.35-14.79Q398.35-13.79 397.35-13.79L397.35-13.79 384.97-13.79Q384.68-13.79 384.68-13.5L384.68-13.5Q384.68-11.38 384.68-9.27 384.68-7.15 384.65-5.03L384.65-5.03Q384.63-4.03 384.64-3.02 384.65-2 384.61-1L384.61-1Q384.53 0 383.61 0L383.61 0 379.41 0Q378.4 0 378.4-1.03L378.4-1.03Q378.4-2.37 378.44-3.7 378.48-5.03 378.5-6.37L378.5-6.37Q378.58-11.99 378.58-17.58L378.58-17.58Q378.58-21.51 378.5-25.4 378.43-29.3 378.43-33.2ZM405.4-22.14L408.68-22.14Q409.6-22.14 409.68-21.24L409.68-21.24 409.92-18.46Q409.92-18.43 409.97-18.1 410.02-17.77 410.14-17.77L410.14-17.77Q410.26-17.77 410.4-18.04 410.53-18.31 410.56-18.36L410.56-18.36Q411.56-20.24 413-21.31 414.44-22.39 416.63-22.39L416.63-22.39Q417.15-22.39 417.94-22.3 418.73-22.22 418.73-21.48L418.73-21.48Q418.73-21.12 418.59-20.34 418.44-19.56 418.26-18.76 418.08-17.97 417.98-17.55L417.98-17.55Q417.88-17.14 417.67-16.91 417.46-16.67 416.98-16.67L416.98-16.67Q416.73-16.67 416.5-16.71 416.27-16.75 416-16.75L416-16.75Q414.07-16.75 412.75-15.54 411.43-14.33 410.78-12.57 410.12-10.82 410.12-9.11L410.12-9.11 410.12-1Q410.12 0 409.12 0L409.12 0 405.33 0Q404.33 0 404.33-1.03L404.33-1.03Q404.33-4.81 404.37-8.58 404.4-12.35 404.4-16.11L404.4-16.11 404.4-21.14Q404.4-22.14 405.4-22.14L405.4-22.14ZM429.72 0.46L429.72 0.46Q426.54 0.46 424.4-1.05 422.25-2.56 421.16-5.07 420.07-7.57 420.07-10.5L420.07-10.5 420.07-10.89Q420.12-13.96 421.36-16.67 422.59-19.38 424.93-21.06 427.28-22.73 430.6-22.73L430.6-22.73Q432.65-22.73 434.42-21.96 436.19-21.19 437.73-19.87L437.73-19.87Q437.9-19.7 438.02-19.7L438.02-19.7Q438.31-19.7 438.3-20.31 438.29-20.92 438.47-21.53 438.65-22.14 439.44-22.14L439.44-22.14 442.88-22.14Q443.88-22.14 443.88-21.14L443.88-21.14Q443.88-20.09 443.87-19.04 443.85-17.99 443.85-16.94L443.85-16.94Q443.85-14.26 443.89-11.55 443.93-8.84 443.95-6.15L443.95-6.15Q443.98-4.88 444.01-3.6 444.05-2.32 444.05-1.03L444.05-1.03Q444.05 0 443.05 0L443.05 0 439.22 0Q438.56 0 438.36-0.43 438.17-0.85 438.19-1.44 438.21-2.03 438.19-2.49L438.19-2.49Q438.19-2.56 438.17-2.73 438.14-2.91 438.02-2.91L438.02-2.91Q437.92-2.91 437.84-2.83 437.75-2.76 437.68-2.71L437.68-2.71Q435.97-1.27 433.99-0.4 432.01 0.46 429.72 0.46ZM432.21-4.74L432.21-4.74Q433.94-4.74 435.42-5.46 436.9-6.18 437.73-7.74L437.73-7.74Q437.77-7.84 437.96-8.24 438.14-8.64 438.14-8.74L438.14-8.74Q438.14-9.59 438.13-10.45 438.12-11.3 438.12-12.13L438.12-12.13Q438.12-12.52 438.14-13 438.17-13.48 438.12-13.84L438.12-13.84Q438.09-14.01 437.93-14.36 437.77-14.7 437.7-14.84L437.7-14.84Q436.85-16.38 435.28-17.14 433.72-17.9 432.01-17.9L432.01-17.9Q430.21-17.9 428.84-16.99 427.47-16.09 426.7-14.61 425.93-13.13 425.93-11.38L425.93-11.38Q425.93-9.62 426.74-8.11 427.55-6.59 428.97-5.66 430.4-4.74 432.21-4.74ZM449.98-22.14L449.98-22.14 453.3-22.14Q454.13-22.14 454.28-21.26L454.28-21.26Q454.33-21.07 454.37-20.48 454.42-19.9 454.51-19.38 454.59-18.87 454.74-18.87L454.74-18.87Q454.86-18.87 454.96-18.98 455.06-19.09 455.11-19.17L455.11-19.17Q456.72-21.09 458.81-21.91 460.89-22.73 463.36-22.73L463.36-22.73Q465.36-22.73 467.25-22 469.14-21.26 470.05-19.31L470.05-19.31Q470.1-19.24 470.15-19.12 470.19-18.99 470.32-18.99L470.32-18.99Q470.41-18.99 470.49-19.08 470.56-19.17 470.61-19.21L470.61-19.21Q472.12-20.87 474.12-21.79 476.13-22.71 478.37-22.71L478.37-22.71Q481.35-22.71 483.51-21.06 485.67-19.41 485.67-16.21L485.67-16.21Q485.67-13.65 485.72-11.07 485.77-8.5 485.82-5.93L485.82-5.93Q485.87-4.71 485.93-3.48 485.99-2.25 485.99-1.03L485.99-1.03Q485.99 0 484.99 0L484.99 0 481.18 0Q480.64 0 480.44-0.24 480.23-0.49 480.18-0.98L480.18-0.98Q480.08-2 480.11-3.06 480.13-4.13 480.08-5.15L480.08-5.15Q480.06-7.35 480.02-9.55 479.98-11.74 479.98-13.94L479.98-13.94Q479.98-15.65 479.17-16.61 478.35-17.58 476.59-17.58L476.59-17.58Q474.56-17.58 473.15-16.33 471.73-15.09 470.99-13.24 470.24-11.4 470.24-9.62L470.24-9.62Q470.24-7.47 470.27-5.32 470.29-3.17 470.29-1L470.29-1Q470.29 0 469.29 0L469.29 0 465.43 0Q464.43 0 464.43-1L464.43-1Q464.43-4.25 464.48-7.47 464.53-10.69 464.48-13.94L464.48-13.94Q464.46-15.58 463.66-16.58 462.87-17.58 461.14-17.58L461.14-17.58Q459.06-17.58 457.65-16.35 456.23-15.11 455.5-13.26 454.76-11.4 454.72-9.57L454.72-9.57Q454.69-8.08 454.67-6.59 454.64-5.1 454.59-3.59L454.59-3.59Q454.59-2.95 454.61-2.28 454.62-1.61 454.54-0.98L454.54-0.98Q454.5-0.49 454.29-0.24 454.08 0 453.54 0L453.54 0 449.71 0Q448.71 0 448.71-1.05L448.71-1.05Q448.71-2.32 448.77-3.58 448.83-4.83 448.86-6.1L448.86-6.1Q449-11.45 449-16.77L449-16.77Q449-17.77 448.95-18.97 448.91-20.17 448.98-21.14L448.98-21.14Q449.05-22.14 449.98-22.14ZM501.52 0.59L501.52 0.59Q497.95 0.59 495.3-0.83 492.65-2.25 491.19-4.86 489.72-7.47 489.72-11.06L489.72-11.06Q489.72-14.4 491.11-17.07 492.51-19.73 495.05-21.28 497.58-22.83 501-22.83L501-22.83Q505.23-22.83 507.63-20.46 510.04-18.09 510.89-14.16L510.89-14.16Q510.91-14.09 510.91-13.92L510.91-13.92Q510.91-13.55 510.73-13.37 510.55-13.18 510.26-13.06L510.26-13.06Q509.43-12.67 508.5-12.38 507.57-12.08 506.69-11.74L506.69-11.74Q504.13-10.79 501.54-9.88 498.95-8.96 496.41-7.93L496.41-7.93Q496.22-7.84 496.22-7.69L496.22-7.69Q496.22-7.62 496.27-7.52L496.27-7.52Q497.24-5.76 498.95-4.91 500.66-4.05 502.61-4.05L502.61-4.05Q504.15-4.05 505.48-4.54 506.81-5.03 508.11-5.76L508.11-5.76Q508.28-5.86 508.45-5.93 508.62-6.01 508.79-6.01L508.79-6.01Q509.13-6.01 509.32-5.8 509.5-5.59 509.62-5.32L509.62-5.32Q509.72-5.15 510-4.55 510.28-3.96 510.54-3.36 510.79-2.76 510.79-2.59L510.79-2.59Q510.79-2.32 510.65-2.15 510.5-1.98 510.3-1.83L510.3-1.83Q508.57-0.63 506.09-0.02 503.61 0.59 501.52 0.59ZM495.39-11.3L495.39-11.3Q497.85-12.16 500.32-13.01 502.78-13.87 505.23-14.72L505.23-14.72Q504.62-16.06 503.53-17.07 502.44-18.07 500.86-18.07L500.86-18.07Q499-18.07 497.78-17.07 496.56-16.06 495.97-14.51 495.39-12.96 495.39-11.3ZM528.25-22.14L528.25-22.14 530.96-22.14Q531.52-22.14 531.83-21.61L531.83-21.61Q532.25-20.92 532.62-20.14 532.98-19.36 533.37-18.63L533.37-18.63Q534.3-16.85 535.22-15.04 536.13-13.23 537.08-11.43L537.08-11.43Q537.23-11.16 537.35-11.16L537.35-11.16Q537.5-11.16 537.62-11.43L537.62-11.43Q538.5-13.21 539.31-15.03 540.11-16.85 540.94-18.63L540.94-18.63Q541.28-19.34 541.61-20.12 541.94-20.9 542.33-21.58L542.33-21.58Q542.67-22.14 543.24-22.14L543.24-22.14 546.68-22.14Q547.02-22.14 547.4-22.02 547.78-21.9 547.78-21.46L547.78-21.46Q547.78-21.26 547.72-21.08 547.66-20.9 547.58-20.73L547.58-20.73Q546.31-17.8 544.99-14.89 543.68-11.99 542.38-9.06L542.38-9.06Q541.48-6.96 540.58-4.83 539.67-2.71 538.7-0.61L538.7-0.61Q538.6-0.37 538.38 0 538.16 0.37 537.82 0.37L537.82 0.37Q537.5 0.37 537.27 0.01 537.03-0.34 536.91-0.56L536.91-0.56Q535.25-3.61 533.75-6.75 532.25-9.89 530.64-12.96L530.64-12.96Q530.61-13.04 530.54-13.15 530.47-13.26 530.37-13.26L530.37-13.26Q530.27-13.26 530.2-13.15 530.13-13.04 530.08-12.96L530.08-12.96Q528.59-9.94 527.24-6.81 525.9-3.69 524.39-0.66L524.39-0.66Q524.29-0.42 524.06-0.05 523.83 0.32 523.49 0.32L523.49 0.32Q523.17 0.32 522.94-0.06 522.7-0.44 522.58-0.68L522.58-0.68Q521.53-2.93 520.57-5.21 519.6-7.5 518.6-9.74L518.6-9.74Q517.38-12.5 516.14-15.25 514.89-17.99 513.67-20.73L513.67-20.73Q513.6-20.9 513.54-21.08 513.48-21.26 513.48-21.46L513.48-21.46Q513.48-21.9 513.85-22.02 514.23-22.14 514.57-22.14L514.57-22.14 518.02-22.14Q518.58-22.14 518.9-21.61L518.9-21.61Q519.26-21 519.59-20.32 519.92-19.65 520.24-19.02L520.24-19.02Q521.17-17.16 522.09-15.3 523.02-13.43 524-11.6L524-11.6Q524.14-11.33 524.27-11.33L524.27-11.33Q524.41-11.33 524.53-11.6L524.53-11.6Q524.63-11.79 525.05-12.61 525.46-13.43 526-14.53 526.54-15.63 527.06-16.69 527.59-17.75 527.94-18.46 528.29-19.17 528.29-19.19L528.29-19.19Q528.29-19.36 528.01-19.79 527.73-20.21 527.46-20.7 527.2-21.19 527.2-21.51L527.2-21.51Q527.2-21.92 527.56-22.03 527.93-22.14 528.25-22.14ZM550.26-10.96L550.26-10.96Q550.26-14.36 551.72-17.02 553.17-19.68 555.78-21.23 558.39-22.78 561.81-22.78L561.81-22.78Q565.18-22.78 567.7-21.25 570.21-19.73 571.61-17.09 573.02-14.45 573.02-11.16L573.02-11.16Q573.02-7.76 571.63-5.14 570.24-2.51 567.71-1.03 565.18 0.46 561.72 0.46L561.72 0.46Q558.27 0.46 555.7-0.96 553.12-2.39 551.69-4.96 550.26-7.52 550.26-10.96ZM561.69-17.85L561.69-17.85Q559.84-17.85 558.59-16.86 557.34-15.87 556.71-14.33 556.08-12.79 556.08-11.11L556.08-11.11Q556.08-9.52 556.75-8.06 557.42-6.59 558.66-5.66 559.91-4.74 561.62-4.74L561.62-4.74Q563.47-4.74 564.71-5.68 565.94-6.62 566.56-8.11 567.18-9.59 567.18-11.28L567.18-11.28Q567.18-12.92 566.56-14.42 565.94-15.92 564.72-16.88 563.5-17.85 561.69-17.85ZM577.8-22.14L581.07-22.14Q582-22.14 582.07-21.24L582.07-21.24 582.32-18.46Q582.32-18.43 582.37-18.1 582.42-17.77 582.54-17.77L582.54-17.77Q582.66-17.77 582.79-18.04 582.93-18.31 582.95-18.36L582.95-18.36Q583.95-20.24 585.39-21.31 586.83-22.39 589.03-22.39L589.03-22.39Q589.54-22.39 590.34-22.3 591.13-22.22 591.13-21.48L591.13-21.48Q591.13-21.12 590.99-20.34 590.84-19.56 590.66-18.76 590.47-17.97 590.37-17.55L590.37-17.55Q590.28-17.14 590.07-16.91 589.86-16.67 589.37-16.67L589.37-16.67Q589.13-16.67 588.9-16.71 588.67-16.75 588.4-16.75L588.4-16.75Q586.47-16.75 585.15-15.54 583.83-14.33 583.17-12.57 582.51-10.82 582.51-9.11L582.51-9.11 582.51-1Q582.51 0 581.51 0L581.51 0 577.73 0Q576.73 0 576.73-1.03L576.73-1.03Q576.73-4.81 576.76-8.58 576.8-12.35 576.8-16.11L576.8-16.11 576.8-21.14Q576.8-22.14 577.8-22.14L577.8-22.14ZM598.21 0L594.38 0Q593.38 0 593.38-1.03L593.38-1.03Q593.38-2.37 593.41-3.7 593.45-5.03 593.47-6.37L593.47-6.37Q593.52-9.18 593.55-11.99 593.57-14.79 593.57-17.6L593.57-17.6Q593.57-20.41 593.55-23.22 593.52-26.03 593.47-28.83L593.47-28.83Q593.45-30.18 593.41-31.51 593.38-32.84 593.38-34.18L593.38-34.18Q593.38-35.21 594.38-35.21L594.38-35.21 598.21-35.21Q599.19-35.21 599.21-34.2L599.21-34.2Q599.28-32.79 599.27-31.36 599.26-29.93 599.26-28.52L599.26-28.52Q599.28-25.54 599.3-22.55 599.31-19.56 599.31-16.58L599.31-16.58 599.31-12.77Q599.31-12.48 599.53-12.48L599.53-12.48Q599.63-12.48 599.67-12.5L599.67-12.5Q602.12-13.18 604.4-14.22 606.68-15.26 608.41-16.97 610.15-18.68 610.88-21.29L610.88-21.29Q611-21.7 611.22-21.94 611.44-22.17 611.91-22.17L611.91-22.17 616.3-22.17Q616.71-22.17 617.01-22 617.3-21.83 617.3-21.36L617.3-21.36Q617.3-21.26 617.25-21.02L617.25-21.02Q616.45-17.72 614.41-15.5 612.37-13.28 609.61-11.5L609.61-11.5Q609.44-11.38 609.44-11.25L609.44-11.25Q609.44-11.18 610.11-10.28 610.78-9.38 611.78-8.06 612.78-6.74 613.83-5.37 614.88-4 615.69-2.97 616.5-1.93 616.71-1.61L616.71-1.61Q616.86-1.42 617.02-1.16 617.18-0.9 617.18-0.63L617.18-0.63Q617.18-0.17 616.7-0.09 616.23 0 615.91 0L615.91 0 611.71 0Q611.3 0 610.95-0.37L610.95-0.37Q610.49-0.85 610.05-1.4 609.61-1.95 609.17-2.49L609.17-2.49Q607.9-4 606.64-5.55 605.39-7.1 604.09-8.59L604.09-8.59Q604.02-8.72 603.87-8.72L603.87-8.72Q603.8-8.72 603.75-8.69L603.75-8.69Q602.7-8.3 601.63-7.98 600.55-7.67 599.5-7.28L599.5-7.28Q599.28-7.2 599.28-6.98L599.28-6.98 599.21-1Q599.21 0 598.21 0L598.21 0Z" opacity="1" transform="matrix(1,0,0,1,0,0)" fill="#4b91f1" class="slogan-text-1" data-fill-palette-color="secondary" id="text-1"></path></svg></g></svg></g></svg></g></svg></g><g><svg viewBox="0 0 197.9894016 197.9894016" height="197.9894016" width="197.9894016"><g><svg></svg></g><g id="icon-0"><svg viewBox="0 0 197.9894016 197.9894016" height="197.9894016" width="197.9894016"><g><path transform="scale(1.97989,1.97989)" d="M30 100c-16.569 0-30-13.431-30-30v-40c0-16.569 13.431-30 30-30h40c16.569 0 30 13.431 30 30v40c0 16.569-13.431 30-30 30z" fill="#4b91f1" fill-rule="nonzero" stroke="none" stroke-width="1" stroke-linecap="butt" stroke-linejoin="miter" stroke-miterlimit="10" stroke-dasharray="" stroke-dashoffset="0" font-family="none" font-weight="none" font-size="none" text-anchor="none" style="mix-blend-mode: normal" data-fill-palette-color="accent"></path></g><g transform="matrix(1,0,0,1,39.59788032000001,39.59788032000001)"><svg viewBox="0 0 118.79364095999999 118.79364095999999" height="118.79364095999999" width="118.79364095999999"><g><svg xmlns="http://www.w3.org/2000/svg" viewBox="32 32 448 448" x="0" y="0" height="118.79364095999999" width="118.79364095999999" class="icon-dxe-0" data-fill-palette-color="quaternary" id="dxe-0"><path d="M256 32C131.918 32 32 180.8 32 304 32 414.207 115.738 480 256 480S480 414.207 480 304C480 180.8 380.082 32 256 32M168 208A24 24 0 1 1 192 184 24.027 24.027 0 0 1 168 208M256 288A56.063 56.063 0 0 1 200 232 8 8 0 0 1 216 232 40 40 0 0 0 296 232 8 8 0 0 1 312 232 56.063 56.063 0 0 1 256 288M364.8 201.6A8 8 0 1 1 355.2 214.4L323.2 190.4A8 8 0 0 1 323.2 177.6L355.2 153.6A8 8 0 1 1 364.8 166.4L341.332 184Z" fill="#ffffff" data-fill-palette-color="quaternary"></path><circle cx="168" cy="184" r="8.0" fill="#ffffff" data-fill-palette-color="quaternary"></circle></svg></g></svg></g></svg></g></svg></g></svg></g><defs></defs></svg><rect width="395.52" height="125.26963425914518" fill="none" stroke="none" visibility="hidden"></rect></g></svg></g></svg>